<?xml version="1.0" encoding="utf-8"?>
<!-- Generator: Adobe Illustrator 16.0.0, SVG Export Plug-In . SVG Version: 6.00 Build 0)  -->
<!DOCTYPE svg PUBLIC "-//W3C//DTD SVG 1.1//EN" "http://www.w3.org/Graphics/SVG/1.1/DTD/svg11.dtd">
<svg version="1.1" id="Layer_1" xmlns="http://www.w3.org/2000/svg" xmlns:xlink="http://www.w3.org/1999/xlink" x="0px" y="0px"
	 width="419.697px" height="275.758px" viewBox="0 0 419.697 275.758" enable-background="new 0 0 419.697 275.758"
	 xml:space="preserve">
<g>
	<path fill="#010101" d="M176.442,15.058c-0.545-0.797,0.044-1.868,1.009-1.822c3.128,0.147,8.028-1.009,13.628-4.562
		c7.831-4.97,14.582-3.222,18.868-2.606c1.389,0.2,3.249,1.052,4.487,1.711c3.229,1.717,11.602,7.752,8.988,17.979
		c-2.301,9.013-8.236,9.005-10.439,8.714c-0.481-0.064-2.448-0.624-2.854-0.892c-2.037-1.335-4.84-6.519-0.587-10.838
		c1.404-1.425,6.546-0.599,6.793-1.084c1.454-2.86,0.172-7.702-4.174-10.476c-3.552-2.267-10.87-2.024-15.616,0.379
		c-6.028,3.05-8.923,6.934-9.408,16.455c-0.559,10.979,5.713,19.829,24.113,17.547c0.838-0.103,1.527,0.495,1.527,1.34v11.781
		c0,0.794-1.034,1.086-1.459,0.416c-2.236-3.541-7.107-8.441-14.996-8.195c-7.762,0.242-10.466,1.329-13.227,3.348
		c-2.407,1.761-3.214,4.062-4.64,6.541c-4.645,8.073-8.625,41.061,22.354,46.409c2.758,0.476,5.427,1.396,8.223,1.258
		c5.331-0.263,13.924-1.859,18.552-8.951c0.981-1.505,0.527-3.576-0.969-4.571c-3.266-2.171-7.47-7.569-1.626-14.536
		c5.198-6.198,15.426-1.196,16.441,6.075c1.003,7.181-3.185,24.792-29.073,26.362c-28.733,1.742-52.994-15.791-48.423-45.778
		c0.364-2.384-0.344-4.834-1.764-6.783c-0.227-0.309-0.474-0.613-0.744-0.9c-0.589-0.628-0.128-1.954,0.72-2.105
		c3.568-0.632,7.364-1.506,10.057-2.841c3.458-1.717,7.827-6.031,17.22-7.525c1.091-0.173,1.359-1.683,0.578-2.463
		c-3-2.993-8.21-4.438-10.127-12.331C177.88,23.902,178.732,18.405,176.442,15.058"/>
	<path fill="#010101" d="M193.161,67.895c-0.576-0.604-0.143-1.944,0.645-1.67c5.798,2.019,20.324,0.389,31.706-0.801
		c7.271-0.759,13.711-0.278,18.439,1.45c4.943,1.805,10.058,5.775,12.731,10.308c4.298,7.286,6.317,20.462,1.977,33.191
		c-2.938,8.61-13.313,14.492-17.466,16.148c-1.572,0.627-9.788,2.164-10.86,2.182c-13.249,0.211-30.821-1.322-36.446-3.563
		c-9.594-3.824-15.133-2.925-17.52-2.489c-0.937,0.171-1.448,2.159-1.073,3.035c0.543,1.27,1.554,3.761,0.854,5.959
		c-1.184,3.721-5.429,4.059-5.429,4.059c-0.998,0.405-12.933-0.416-10.317-11.971c2.442-10.783,15.897-7.14,15.897-7.14l14.037,3.25
		c-1.708-0.883,16.453,5.682,30.103,4.059c6.216-0.739,10.378-1.701,14.566-3.324c9.98-3.868,14.87-13.906,15.257-27.372
		c0.12-4.162,0.238-3.546-0.059-6.002c-0.901-7.434-4.239-11.02-7.84-13.644c-2.875-2.094-6.297-3.541-10.415-4.046
		c-3.985-0.488-10.81-0.186-15.631,0.267c-2.629,0.247-4.638,3.433-4.638,6.075l-0.918,110.095c0.143,1.508-1.461,1.913-1.761,0.268
		c-1.05-5.783-5.309-12.8-11.508-14.449c-0.989-0.263-1.317-1.488-0.608-2.226c2.146-2.229,4.945-6.788,5.085-15.464
		c0.183-11.376,0.072-47.965,0.021-61.896c-0.02-5.683,0.172-12.776-2.412-17.838C198.396,72.032,195.262,70.101,193.161,67.895"/>
</g>
<text transform="matrix(1 0 0 1 8.752 244.2227)"><tspan x="0" y="0" font-family="'PlayfairDisplay-BoldItalic'" font-size="45" letter-spacing="8">E</tspan><tspan x="37.079" y="0" font-family="'PlayfairDisplay-BoldItalic'" font-size="45" letter-spacing="8">LL</tspan><tspan x="109.257" y="0" font-family="'PlayfairDisplay-BoldItalic'" font-size="45" letter-spacing="8">EN</tspan><tspan x="192.38" y="0" font-family="'PlayfairDisplay-BoldItalic'" font-size="45" letter-spacing="8"> P</tspan><tspan x="250.518" y="0" font-family="'PlayfairDisplay-BoldItalic'" font-size="45" letter-spacing="8">ERR</tspan><tspan x="369.401" y="0" font-family="'PlayfairDisplay-BoldItalic'" font-size="45">Y</tspan></text>
<text transform="matrix(1 0 0 1 93.4102 269.6299)" font-family="'PlayfairDisplay-Italic'" font-size="22" letter-spacing="3">tattoo + illustration</text>
</svg>
