<?xml version="1.0" encoding="utf-8"?>
<!-- Generator: Adobe Illustrator 16.0.0, SVG Export Plug-In . SVG Version: 6.00 Build 0)  -->
<!DOCTYPE svg PUBLIC "-//W3C//DTD SVG 1.1//EN" "http://www.w3.org/Graphics/SVG/1.1/DTD/svg11.dtd">
<svg version="1.1" id="Layer_1" xmlns="http://www.w3.org/2000/svg" xmlns:xlink="http://www.w3.org/1999/xlink" x="0px" y="0px"
	 width="325px" height="325px" viewBox="0 0 325 325" enable-background="new 0 0 325 325" xml:space="preserve">
<rect x="-5.001" y="-5.666" width="334.667" height="335.333"/>
<g>
	<g>
		<path fill="#FEFEFE" d="M139.328,78.22c-0.367-0.537,0.03-1.259,0.681-1.228c2.108,0.099,5.411-0.68,9.186-3.075
			c5.278-3.35,9.829-2.171,12.718-1.756c0.936,0.135,2.189,0.709,3.023,1.153c2.177,1.158,7.82,5.226,6.059,12.118
			c-1.551,6.075-5.552,6.07-7.036,5.874c-0.324-0.043-1.649-0.42-1.924-0.601c-1.373-0.9-3.262-4.394-0.396-7.305
			c0.946-0.96,4.412-0.404,4.578-0.73c0.98-1.928,0.116-5.191-2.812-7.061c-2.395-1.528-7.327-1.364-10.525,0.255
			c-4.062,2.056-6.015,4.674-6.342,11.091c-0.376,7.4,3.851,13.365,16.253,11.827c0.564-0.07,1.029,0.333,1.029,0.903v7.941
			c0,0.535-0.697,0.732-0.983,0.28c-1.507-2.387-4.79-5.689-10.107-5.524c-5.231,0.163-7.055,0.896-8.915,2.257
			c-1.623,1.187-2.167,2.738-3.128,4.409c-3.13,5.441-5.813,27.676,15.066,31.28c1.859,0.32,3.659,0.94,5.543,0.848
			c3.594-0.177,9.385-1.253,12.504-6.033c0.661-1.014,0.355-2.41-0.652-3.081c-2.201-1.464-5.035-5.102-1.096-9.797
			c3.503-4.178,10.396-0.806,11.08,4.094c0.677,4.84-2.146,16.71-19.595,17.769c-19.366,1.174-35.719-10.644-32.638-30.855
			c0.245-1.606-0.232-3.258-1.189-4.572c-0.152-0.208-0.319-0.413-0.501-0.606c-0.397-0.423-0.086-1.317,0.485-1.419
			c2.404-0.426,4.963-1.015,6.778-1.915c2.331-1.158,5.275-4.065,11.606-5.072c0.735-0.117,0.916-1.134,0.39-1.66
			c-2.021-2.017-5.533-2.991-6.825-8.311C140.298,84.181,140.873,80.476,139.328,78.22"/>
		<path fill="#FEFEFE" d="M150.598,113.833c-0.388-0.407-0.097-1.31,0.436-1.125c3.907,1.361,13.698,0.262,21.369-0.54
			c4.901-0.512,9.241-0.188,12.429,0.978c3.332,1.217,6.778,3.893,8.58,6.947c2.897,4.911,4.258,13.792,1.333,22.372
			c-1.98,5.803-8.974,9.768-11.772,10.884c-1.06,0.423-6.598,1.458-7.319,1.471c-8.931,0.142-20.774-0.891-24.565-2.402
			c-6.466-2.577-10.199-1.971-11.809-1.677c-0.632,0.115-0.976,1.455-0.723,2.045c0.365,0.856,1.047,2.535,0.575,4.016
			c-0.798,2.508-3.659,2.736-3.659,2.736c-0.673,0.273-8.717-0.28-6.953-8.068c1.646-7.268,10.714-4.813,10.714-4.813l9.461,2.19
			c-1.151-0.595,11.09,3.83,20.29,2.736c4.189-0.498,6.994-1.146,9.817-2.241c6.727-2.607,10.022-9.373,10.283-18.449
			c0.081-2.806,0.161-2.39-0.039-4.045c-0.607-5.011-2.857-7.428-5.284-9.197c-1.938-1.411-4.244-2.386-7.021-2.727
			c-2.686-0.329-7.285-0.125-10.535,0.18c-1.772,0.166-3.126,2.313-3.126,4.095l-0.619,74.204c0.097,1.017-0.984,1.29-1.187,0.181
			c-0.708-3.898-3.578-8.627-7.757-9.739c-0.666-0.177-0.888-1.002-0.409-1.5c1.445-1.502,3.333-4.575,3.427-10.423
			c0.124-7.667,0.049-32.328,0.015-41.718c-0.014-3.83,0.116-8.61-1.626-12.023C154.127,116.622,152.014,115.32,150.598,113.833"/>
	</g>
	<g enable-background="new    ">
		<path fill="#FFFFFF" d="M40.492,211.293c2.873,0,4.926-0.029,6.161-0.088c-0.533,1.451-0.918,2.646-1.155,3.584
			c-0.108,0.455-0.237,1.08-0.385,1.881h-0.667c0.029-0.385,0.044-0.746,0.044-1.082c0-0.918-0.111-1.643-0.333-2.176
			s-0.578-0.918-1.066-1.156c-0.489-0.236-1.153-0.355-1.992-0.355h-0.933c-0.711,0-1.244,0.061-1.599,0.178
			c-0.355,0.119-0.64,0.35-0.852,0.689c-0.212,0.34-0.417,0.891-0.615,1.65l-1.896,7.154h1.11c1.007,0,1.852-0.354,2.533-1.059
			c0.681-0.707,1.219-1.562,1.614-2.57h0.711c-0.237,0.691-0.422,1.273-0.556,1.748c-0.133,0.473-0.25,0.91-0.348,1.311
			c-0.099,0.4-0.173,0.693-0.222,0.881c-0.247,0.898-0.543,2.211-0.889,3.939h-0.667c0.02-0.275,0.03-0.494,0.03-0.652
			c0-1.994-0.85-2.99-2.547-2.99h-0.933l-1.94,7.285c-0.188,0.672-0.282,1.166-0.282,1.482c0,0.285,0.067,0.502,0.2,0.65
			s0.34,0.25,0.622,0.305c0.281,0.055,0.674,0.08,1.177,0.08h1.125c1.105,0,2.031-0.17,2.777-0.51c0.746-0.342,1.412-0.895,2-1.658
			c0.587-0.766,1.182-1.834,1.785-3.207h0.696c-0.217,0.533-0.439,1.264-0.667,2.191c-0.316,1.066-0.583,2.359-0.8,3.881
			c-1.372-0.061-3.663-0.09-6.872-0.09c-4.374,0-7.662,0.029-9.863,0.09l0.148-0.607c0.731-0.029,1.274-0.109,1.629-0.236
			c0.355-0.129,0.642-0.365,0.859-0.711c0.217-0.346,0.429-0.898,0.637-1.66l3.999-15.047c0.168-0.641,0.252-1.129,0.252-1.465
			c0-0.297-0.067-0.523-0.2-0.682s-0.34-0.27-0.622-0.334c-0.281-0.064-0.684-0.105-1.207-0.125l0.148-0.607
			C32.845,211.264,36.127,211.293,40.492,211.293z"/>
	</g>
	<g enable-background="new    ">
		<path fill="#FFFFFF" d="M67.615,228.799c-0.306,1.037-0.578,2.33-0.814,3.881c-1.382-0.061-3.678-0.09-6.887-0.09
			c-4.413,0-7.721,0.029-9.922,0.09l0.148-0.607c0.731-0.029,1.274-0.109,1.629-0.236c0.355-0.129,0.642-0.365,0.859-0.711
			c0.217-0.346,0.429-0.898,0.637-1.66l3.999-15.047c0.168-0.641,0.252-1.129,0.252-1.465c0-0.297-0.067-0.523-0.2-0.682
			s-0.34-0.27-0.622-0.334c-0.281-0.064-0.684-0.105-1.207-0.125l0.148-0.607c1.066,0.059,2.735,0.088,5.006,0.088
			c1.905,0,3.48-0.029,4.724-0.088l-0.148,0.607c-0.741,0.029-1.291,0.109-1.651,0.236c-0.361,0.129-0.649,0.365-0.867,0.711
			s-0.429,0.898-0.637,1.658l-3.999,15.047c-0.178,0.691-0.267,1.186-0.267,1.482c0,0.285,0.067,0.502,0.2,0.65
			s0.34,0.25,0.622,0.305c0.282,0.055,0.679,0.08,1.192,0.08h1.214c1.441,0,2.71-0.439,3.806-1.316
			c1.096-0.879,2.044-2.33,2.843-4.355h0.667C68.104,226.943,67.862,227.771,67.615,228.799z"/>
		<path fill="#FFFFFF" d="M91.333,228.799c-0.306,1.037-0.577,2.33-0.814,3.881c-1.383-0.061-3.678-0.09-6.887-0.09
			c-4.413,0-7.721,0.029-9.922,0.09l0.148-0.607c0.731-0.029,1.274-0.109,1.629-0.236c0.355-0.129,0.642-0.365,0.859-0.711
			c0.217-0.346,0.429-0.898,0.637-1.66l3.999-15.047c0.168-0.641,0.252-1.129,0.252-1.465c0-0.297-0.067-0.523-0.2-0.682
			s-0.34-0.27-0.622-0.334c-0.281-0.064-0.684-0.105-1.207-0.125l0.148-0.607c1.066,0.059,2.735,0.088,5.006,0.088
			c1.905,0,3.48-0.029,4.724-0.088l-0.148,0.607c-0.74,0.029-1.291,0.109-1.651,0.236c-0.36,0.129-0.649,0.365-0.866,0.711
			s-0.43,0.898-0.637,1.658l-3.999,15.047c-0.178,0.691-0.267,1.186-0.267,1.482c0,0.285,0.067,0.502,0.2,0.65
			s0.34,0.25,0.622,0.305c0.282,0.055,0.679,0.08,1.192,0.08h1.214c1.442,0,2.711-0.439,3.807-1.316
			c1.096-0.879,2.044-2.33,2.844-4.355h0.666C91.822,226.943,91.58,227.771,91.333,228.799z"/>
	</g>
	<g enable-background="new    ">
		<path fill="#FFFFFF" d="M114.131,211.293c2.873,0,4.927-0.029,6.161-0.088c-0.533,1.451-0.918,2.646-1.155,3.584
			c-0.108,0.455-0.237,1.08-0.385,1.881h-0.667c0.03-0.385,0.045-0.746,0.045-1.082c0-0.918-0.111-1.643-0.333-2.176
			c-0.223-0.533-0.578-0.918-1.066-1.156c-0.489-0.236-1.153-0.355-1.992-0.355h-0.933c-0.711,0-1.244,0.061-1.6,0.178
			c-0.355,0.119-0.64,0.35-0.852,0.689c-0.213,0.34-0.417,0.891-0.615,1.65l-1.896,7.154h1.111c1.007,0,1.851-0.354,2.532-1.059
			c0.682-0.707,1.219-1.562,1.614-2.57h0.711c-0.237,0.691-0.422,1.273-0.556,1.748c-0.133,0.473-0.249,0.91-0.348,1.311
			s-0.173,0.693-0.223,0.881c-0.247,0.898-0.543,2.211-0.889,3.939h-0.666c0.02-0.275,0.029-0.494,0.029-0.652
			c0-1.994-0.849-2.99-2.547-2.99h-0.934l-1.939,7.285c-0.188,0.672-0.281,1.166-0.281,1.482c0,0.285,0.066,0.502,0.199,0.65
			c0.134,0.148,0.341,0.25,0.622,0.305c0.282,0.055,0.674,0.08,1.178,0.08h1.126c1.105,0,2.031-0.17,2.776-0.51
			c0.745-0.342,1.412-0.895,1.999-1.658c0.588-0.766,1.183-1.834,1.785-3.207h0.696c-0.218,0.533-0.439,1.264-0.667,2.191
			c-0.316,1.066-0.583,2.359-0.8,3.881c-1.372-0.061-3.663-0.09-6.872-0.09c-4.373,0-7.661,0.029-9.863,0.09l0.148-0.607
			c0.73-0.029,1.273-0.109,1.629-0.236c0.355-0.129,0.642-0.365,0.859-0.711c0.217-0.346,0.43-0.898,0.637-1.66l3.999-15.047
			c0.167-0.641,0.251-1.129,0.251-1.465c0-0.297-0.066-0.523-0.199-0.682c-0.134-0.158-0.341-0.27-0.622-0.334
			s-0.684-0.105-1.207-0.125l0.147-0.607C106.484,211.264,109.768,211.293,114.131,211.293z"/>
		<path fill="#FFFFFF" d="M146.438,211.754c0.889-1.295,1.979-1.941,3.273-1.941c0.602,0,1.12,0.113,1.555,0.342
			c0.435,0.227,0.765,0.535,0.992,0.926c0.227,0.389,0.341,0.826,0.341,1.311c0,0.512-0.119,0.979-0.355,1.398
			c-0.237,0.42-0.568,0.75-0.992,0.992c-0.425,0.242-0.898,0.363-1.422,0.363c-0.662,0-1.175-0.166-1.54-0.496
			s-0.548-0.773-0.548-1.326c0-0.66,0.214-1.244,0.644-1.746c0.43-0.504,0.976-0.859,1.637-1.066
			c-0.079-0.08-0.242-0.119-0.488-0.119c-0.968,0-1.817,0.533-2.548,1.6c-0.898,1.342-1.831,3.697-2.799,7.064
			s-2.068,7.957-3.303,13.773h-0.666l-7.523-16.469c-0.869,4.295-1.693,7.908-2.474,10.84c-0.78,2.934-1.53,4.873-2.251,5.82
			c-0.444,0.592-0.916,1.059-1.414,1.4c-0.499,0.34-1.108,0.51-1.829,0.51c-0.603,0-1.118-0.113-1.548-0.34
			s-0.755-0.539-0.978-0.934c-0.222-0.395-0.333-0.834-0.333-1.318c0-0.512,0.118-0.979,0.355-1.398s0.565-0.75,0.984-0.992
			c0.42-0.242,0.896-0.363,1.43-0.363c0.651,0,1.162,0.168,1.532,0.504c0.371,0.336,0.556,0.775,0.556,1.318
			c0,0.66-0.217,1.246-0.651,1.754s-0.987,0.861-1.659,1.059c0.099,0.09,0.271,0.135,0.519,0.135c1.037,0,1.886-0.549,2.548-1.645
			c0.76-1.186,1.542-3.312,2.347-6.383s1.681-7.029,2.629-11.877v-0.031c0.128-0.611,0.192-1.066,0.192-1.361
			c0-0.326-0.071-0.576-0.215-0.748c-0.143-0.174-0.377-0.293-0.703-0.363c-0.326-0.068-0.8-0.113-1.422-0.133l0.148-0.607
			c0.642,0.059,1.54,0.088,2.695,0.088c0.938,0,1.757-0.029,2.458-0.088l6.279,14.395
			C143.58,218.314,145.096,213.697,146.438,211.754z"/>
	</g>
	<g enable-background="new    ">
		<path fill="#FFFFFF" d="M175.6,230.799c0,0.424,0.15,0.734,0.451,0.932c0.302,0.199,0.827,0.312,1.577,0.342l-0.133,0.607
			c-1.215-0.061-2.77-0.09-4.665-0.09c-2.291,0-3.969,0.029-5.035,0.09l0.118-0.607c0.73-0.029,1.276-0.109,1.637-0.236
			c0.36-0.129,0.649-0.365,0.866-0.711s0.425-0.898,0.622-1.66l3.999-15.047c0.147-0.641,0.222-1.115,0.222-1.422
			c0-0.404-0.144-0.695-0.43-0.873s-0.81-0.281-1.569-0.311l0.147-0.607c1.027,0.059,2.632,0.088,4.813,0.088
			c0.483,0,1.217-0.01,2.199-0.029s1.73-0.029,2.244-0.029c2.379,0,4.161,0.389,5.346,1.162c1.186,0.775,1.777,1.914,1.777,3.414
			c0,1.58-0.525,2.994-1.577,4.244c-1.052,1.248-2.525,2.229-4.421,2.939s-4.067,1.066-6.516,1.066l-1.437,5.404
			C175.679,230.098,175.6,230.541,175.6,230.799z M177.555,223.453c1.678,0,3.053-0.404,4.124-1.215
			c1.071-0.809,1.847-1.844,2.325-3.104c0.479-1.258,0.719-2.598,0.719-4.02c0-1.096-0.235-1.92-0.704-2.475
			c-0.469-0.553-1.217-0.828-2.243-0.828c-0.415,0-0.726,0.072-0.934,0.215c-0.207,0.143-0.375,0.377-0.503,0.703
			c-0.129,0.326-0.297,0.889-0.504,1.688l-2.399,9.035H177.555z"/>
	</g>
	<g enable-background="new    ">
		<path fill="#FFFFFF" d="M209.343,211.293c2.873,0,4.927-0.029,6.161-0.088c-0.533,1.451-0.918,2.646-1.155,3.584
			c-0.108,0.455-0.237,1.08-0.385,1.881h-0.667c0.03-0.385,0.045-0.746,0.045-1.082c0-0.918-0.111-1.643-0.333-2.176
			c-0.223-0.533-0.578-0.918-1.066-1.156c-0.489-0.236-1.153-0.355-1.992-0.355h-0.933c-0.711,0-1.244,0.061-1.6,0.178
			c-0.355,0.119-0.64,0.35-0.852,0.689c-0.213,0.34-0.417,0.891-0.615,1.65l-1.896,7.154h1.111c1.007,0,1.851-0.354,2.532-1.059
			c0.682-0.707,1.219-1.562,1.614-2.57h0.711c-0.237,0.691-0.422,1.273-0.556,1.748c-0.133,0.473-0.249,0.91-0.348,1.311
			s-0.173,0.693-0.223,0.881c-0.247,0.898-0.543,2.211-0.889,3.939h-0.666c0.02-0.275,0.029-0.494,0.029-0.652
			c0-1.994-0.849-2.99-2.547-2.99h-0.934l-1.939,7.285c-0.188,0.672-0.281,1.166-0.281,1.482c0,0.285,0.066,0.502,0.199,0.65
			c0.134,0.148,0.341,0.25,0.622,0.305c0.282,0.055,0.674,0.08,1.178,0.08h1.126c1.105,0,2.031-0.17,2.776-0.51
			c0.745-0.342,1.412-0.895,1.999-1.658c0.588-0.766,1.183-1.834,1.785-3.207h0.696c-0.218,0.533-0.439,1.264-0.667,2.191
			c-0.316,1.066-0.583,2.359-0.8,3.881c-1.372-0.061-3.663-0.09-6.872-0.09c-4.373,0-7.661,0.029-9.863,0.09l0.148-0.607
			c0.73-0.029,1.273-0.109,1.629-0.236c0.355-0.129,0.642-0.365,0.859-0.711c0.217-0.346,0.43-0.898,0.637-1.66l3.999-15.047
			c0.167-0.641,0.251-1.129,0.251-1.465c0-0.297-0.066-0.523-0.199-0.682c-0.134-0.158-0.341-0.27-0.622-0.334
			s-0.684-0.105-1.207-0.125l0.147-0.607C201.696,211.264,204.979,211.293,209.343,211.293z"/>
		<path fill="#FFFFFF" d="M240.08,229.006l-0.133,0.4c-0.385,1.273-0.943,2.209-1.674,2.807s-1.718,0.896-2.962,0.896
			c-1.234,0-2.162-0.268-2.784-0.801s-0.933-1.254-0.933-2.162c0-0.188,0.015-0.375,0.044-0.562l0.459-3.451
			c0.04-0.314,0.06-0.646,0.06-0.992c0-0.631-0.118-1.143-0.355-1.533c-0.237-0.389-0.645-0.688-1.222-0.895
			c-0.577-0.209-1.38-0.322-2.406-0.342l-1.866,7.094c-0.198,0.691-0.296,1.191-0.296,1.496c0,0.375,0.15,0.646,0.451,0.814
			s0.837,0.268,1.606,0.297l-0.133,0.607c-1.215-0.061-2.789-0.09-4.725-0.09c-2.251,0-3.909,0.029-4.976,0.09l0.118-0.607
			c0.73-0.029,1.276-0.109,1.637-0.236c0.36-0.129,0.649-0.365,0.866-0.711s0.425-0.898,0.622-1.66l3.969-15.047
			c0.178-0.641,0.267-1.125,0.267-1.451c0-0.395-0.146-0.678-0.437-0.852c-0.291-0.172-0.817-0.273-1.577-0.303l0.147-0.607
			c1.018,0.059,2.543,0.088,4.576,0.088c0.662,0,1.427-0.01,2.296-0.029s1.619-0.029,2.251-0.029c2.469,0,4.295,0.346,5.479,1.037
			c1.186,0.691,1.777,1.752,1.777,3.184c0,1.176-0.362,2.234-1.088,3.178c-0.727,0.941-1.758,1.717-3.096,2.324
			s-2.905,1.02-4.702,1.236c1.204,0.119,2.199,0.289,2.984,0.512s1.409,0.57,1.873,1.043c0.464,0.475,0.696,1.127,0.696,1.955
			c0,0.207-0.015,0.43-0.045,0.668l-0.414,3.123c-0.029,0.238-0.045,0.455-0.045,0.652c0,0.979,0.326,1.467,0.978,1.467
			c0.396,0,0.733-0.178,1.015-0.533s0.561-0.904,0.837-1.645l0.148-0.43H240.08z M228.544,221.824c1.333,0,2.513-0.268,3.539-0.801
			c1.027-0.533,1.827-1.312,2.399-2.34s0.859-2.256,0.859-3.688c0-1.086-0.229-1.889-0.689-2.406
			c-0.459-0.518-1.167-0.777-2.125-0.777c-0.414,0-0.748,0.059-0.999,0.178c-0.252,0.119-0.462,0.318-0.63,0.6
			s-0.326,0.689-0.474,1.223l-2.104,8.012H228.544z"/>
		<path fill="#FFFFFF" d="M267.012,229.006l-0.133,0.4c-0.385,1.273-0.943,2.209-1.674,2.807s-1.718,0.896-2.962,0.896
			c-1.234,0-2.162-0.268-2.784-0.801s-0.933-1.254-0.933-2.162c0-0.188,0.015-0.375,0.044-0.562l0.459-3.451
			c0.04-0.314,0.06-0.646,0.06-0.992c0-0.631-0.118-1.143-0.355-1.533c-0.237-0.389-0.645-0.688-1.222-0.895
			c-0.577-0.209-1.38-0.322-2.406-0.342l-1.866,7.094c-0.198,0.691-0.296,1.191-0.296,1.496c0,0.375,0.15,0.646,0.451,0.814
			s0.837,0.268,1.606,0.297l-0.133,0.607c-1.215-0.061-2.789-0.09-4.725-0.09c-2.251,0-3.909,0.029-4.976,0.09l0.118-0.607
			c0.73-0.029,1.276-0.109,1.637-0.236c0.36-0.129,0.649-0.365,0.866-0.711s0.425-0.898,0.622-1.66l3.969-15.047
			c0.178-0.641,0.267-1.125,0.267-1.451c0-0.395-0.146-0.678-0.437-0.852c-0.291-0.172-0.817-0.273-1.577-0.303l0.147-0.607
			c1.018,0.059,2.543,0.088,4.576,0.088c0.662,0,1.427-0.01,2.296-0.029s1.619-0.029,2.251-0.029c2.469,0,4.295,0.346,5.479,1.037
			c1.186,0.691,1.777,1.752,1.777,3.184c0,1.176-0.362,2.234-1.088,3.178c-0.727,0.941-1.758,1.717-3.096,2.324
			s-2.905,1.02-4.702,1.236c1.204,0.119,2.199,0.289,2.984,0.512s1.409,0.57,1.873,1.043c0.464,0.475,0.696,1.127,0.696,1.955
			c0,0.207-0.015,0.43-0.045,0.668l-0.414,3.123c-0.029,0.238-0.045,0.455-0.045,0.652c0,0.979,0.326,1.467,0.978,1.467
			c0.396,0,0.733-0.178,1.015-0.533s0.561-0.904,0.837-1.645l0.148-0.43H267.012z M255.476,221.824c1.333,0,2.513-0.268,3.539-0.801
			c1.027-0.533,1.827-1.312,2.399-2.34s0.859-2.256,0.859-3.688c0-1.086-0.229-1.889-0.689-2.406
			c-0.459-0.518-1.167-0.777-2.125-0.777c-0.414,0-0.748,0.059-0.999,0.178c-0.252,0.119-0.462,0.318-0.63,0.6
			s-0.326,0.689-0.474,1.223l-2.104,8.012H255.476z"/>
	</g>
	<g enable-background="new    ">
		<path fill="#FFFFFF" d="M280.186,211.539c0.721-0.51,1.6-0.764,2.636-0.764c1.323,0,2.359,0.412,3.11,1.236
			c0.75,0.824,1.312,1.988,1.688,3.488c0.375,1.5,0.705,3.535,0.992,6.102c1.333-3.771,2.991-6.754,4.976-8.945
			c1.146-1.254,2.34-1.881,3.584-1.881c0.593,0,1.101,0.117,1.525,0.348c0.425,0.232,0.745,0.549,0.963,0.949
			c0.217,0.398,0.326,0.842,0.326,1.324c0,0.504-0.119,0.963-0.355,1.377c-0.237,0.416-0.565,0.744-0.985,0.986
			s-0.891,0.361-1.414,0.361c-0.672,0-1.19-0.168-1.555-0.502c-0.366-0.336-0.549-0.785-0.549-1.348
			c0.01-0.662,0.229-1.242,0.659-1.74c0.43-0.5,0.98-0.852,1.651-1.061c-0.108-0.078-0.281-0.117-0.519-0.117
			c-0.592,0-1.199,0.232-1.821,0.695c-0.562,0.406-1.202,1.08-1.918,2.021c-0.716,0.943-1.451,2.143-2.206,3.6
			c-0.756,1.455-1.454,3.111-2.096,4.969l-1.718,6.826c-0.129,0.543-0.193,0.953-0.193,1.23c0,0.365,0.082,0.641,0.245,0.828
			c0.162,0.188,0.407,0.318,0.732,0.393c0.326,0.074,0.78,0.127,1.362,0.156l-0.147,0.607c-1.155-0.061-2.894-0.09-5.213-0.09
			c-2.192,0-3.821,0.029-4.888,0.09l0.148-0.607c0.74-0.029,1.293-0.109,1.658-0.236c0.365-0.129,0.654-0.369,0.866-0.719
			c0.213-0.352,0.412-0.9,0.601-1.652l1.644-6.545c-0.316-2.756-0.758-5.092-1.325-7.014c-0.568-1.92-1.291-2.879-2.17-2.879
			c-0.355,0-0.64,0.123-0.852,0.369c-0.213,0.248-0.393,0.598-0.541,1.053l-0.637,1.91h-0.666l0.755-2.34
			C278.916,212.873,279.465,212.047,280.186,211.539z"/>
	</g>
	<g enable-background="new    ">
		<path fill="#FFFFFF" d="M85.102,248.877c0,0.199,0.059,0.346,0.178,0.441c0.117,0.098,0.273,0.146,0.467,0.146
			c0.246,0,0.477-0.107,0.691-0.32c0.215-0.211,0.424-0.6,0.627-1.164l0.209-0.58h0.283l-0.312,0.934
			c-0.207,0.613-0.477,1.047-0.811,1.301c-0.332,0.252-0.74,0.379-1.224,0.379c-0.444,0-0.776-0.107-0.996-0.326
			c-0.22-0.217-0.329-0.518-0.329-0.904c0-0.236,0.045-0.52,0.137-0.848l1.571-5.459h-1.332l0.072-0.297h1.348l0.643-2.252
			c0.547-0.014,0.99-0.084,1.334-0.209l-0.703,2.461h1.963l-0.045,0.297h-1.998l-1.723,6.068
			C85.118,248.66,85.102,248.771,85.102,248.877z"/>
		<path fill="#FFFFFF" d="M97.385,247.387l-0.369,1.086c-0.203,0.549-0.457,0.943-0.761,1.184c-0.304,0.238-0.62,0.357-0.948,0.357
			c-0.184,0-0.347-0.035-0.489-0.104c-0.142-0.07-0.252-0.166-0.329-0.287c-0.082-0.145-0.123-0.318-0.123-0.521
			c0-0.145,0.017-0.295,0.051-0.453c0.033-0.156,0.069-0.305,0.108-0.447s0.062-0.236,0.072-0.279l0.269-1.078
			c-0.474,1.109-0.955,1.916-1.445,2.418c-0.489,0.502-1.002,0.752-1.538,0.752c-0.454,0-0.8-0.162-1.039-0.488
			s-0.358-0.762-0.358-1.307c0-0.801,0.214-1.697,0.641-2.686c0.428-0.99,0.98-1.83,1.658-2.52c0.678-0.691,1.372-1.037,2.082-1.037
			c0.26,0,0.477,0.098,0.647,0.291c0.172,0.193,0.271,0.465,0.301,0.818l0.231-0.906c0.551-0.014,1.007-0.082,1.368-0.203
			l-1.854,6.553c-0.072,0.262-0.108,0.445-0.108,0.551c0,0.246,0.111,0.369,0.333,0.369c0.435,0,0.813-0.504,1.137-1.514
			l0.182-0.549H97.385z M95.632,243.549c0-0.396-0.071-0.709-0.213-0.941c-0.143-0.232-0.344-0.348-0.604-0.348
			c-0.42,0-0.868,0.326-1.344,0.98s-0.873,1.465-1.194,2.43s-0.481,1.873-0.481,2.723c0,0.41,0.043,0.703,0.13,0.879
			c0.087,0.178,0.215,0.266,0.384,0.266c0.275,0,0.604-0.211,0.988-0.635c0.384-0.422,0.761-0.986,1.13-1.689
			c0.369-0.705,0.675-1.459,0.916-2.26l0.275-1.078C95.627,243.721,95.632,243.611,95.632,243.549z"/>
		<path fill="#FFFFFF" d="M101.87,248.877c0,0.199,0.06,0.346,0.178,0.441c0.118,0.098,0.273,0.146,0.467,0.146
			c0.246,0,0.477-0.107,0.691-0.32c0.215-0.211,0.424-0.6,0.627-1.164l0.21-0.58h0.282l-0.312,0.934
			c-0.208,0.613-0.478,1.047-0.811,1.301c-0.333,0.252-0.741,0.379-1.224,0.379c-0.444,0-0.776-0.107-0.996-0.326
			c-0.22-0.217-0.329-0.518-0.329-0.904c0-0.236,0.046-0.52,0.138-0.848l1.571-5.459h-1.333l0.072-0.297h1.348l0.644-2.252
			c0.546-0.014,0.99-0.084,1.333-0.209l-0.703,2.461h1.963l-0.044,0.297h-1.998l-1.724,6.068
			C101.888,248.66,101.87,248.771,101.87,248.877z"/>
		<path fill="#FFFFFF" d="M108.868,248.877c0,0.199,0.06,0.346,0.178,0.441c0.118,0.098,0.273,0.146,0.467,0.146
			c0.246,0,0.477-0.107,0.691-0.32c0.215-0.211,0.424-0.6,0.627-1.164l0.21-0.58h0.282l-0.312,0.934
			c-0.208,0.613-0.478,1.047-0.811,1.301c-0.333,0.252-0.741,0.379-1.224,0.379c-0.444,0-0.776-0.107-0.996-0.326
			c-0.22-0.217-0.329-0.518-0.329-0.904c0-0.236,0.046-0.52,0.138-0.848l1.571-5.459h-1.333l0.072-0.297h1.348l0.644-2.252
			c0.546-0.014,0.99-0.084,1.333-0.209l-0.703,2.461h1.963l-0.044,0.297h-1.998l-1.724,6.068
			C108.886,248.66,108.868,248.771,108.868,248.877z"/>
		<path fill="#FFFFFF" d="M114.951,245.174c0.345-0.895,0.843-1.652,1.495-2.27c0.651-0.617,1.409-0.928,2.273-0.928
			c0.632,0,1.128,0.197,1.487,0.588s0.539,0.969,0.539,1.736c0,0.777-0.172,1.613-0.518,2.51c-0.345,0.895-0.842,1.652-1.491,2.273
			c-0.649,0.619-1.406,0.93-2.27,0.93c-0.633,0-1.13-0.195-1.492-0.59c-0.361-0.393-0.543-0.973-0.543-1.74
			C114.433,246.906,114.605,246.07,114.951,245.174z M117.195,243.236c-0.451,0.643-0.812,1.447-1.083,2.412
			c-0.27,0.965-0.405,1.893-0.405,2.779c0,0.859,0.282,1.289,0.848,1.289c0.507,0,0.984-0.32,1.434-0.963
			c0.448-0.641,0.809-1.443,1.078-2.406c0.271-0.963,0.406-1.891,0.406-2.785c0-0.443-0.069-0.77-0.207-0.977
			s-0.349-0.312-0.633-0.312C118.126,242.273,117.646,242.596,117.195,243.236z"/>
		<path fill="#FFFFFF" d="M124.201,245.174c0.345-0.895,0.843-1.652,1.495-2.27c0.651-0.617,1.409-0.928,2.273-0.928
			c0.632,0,1.128,0.197,1.487,0.588s0.539,0.969,0.539,1.736c0,0.777-0.172,1.613-0.518,2.51c-0.345,0.895-0.842,1.652-1.491,2.273
			c-0.649,0.619-1.406,0.93-2.27,0.93c-0.633,0-1.13-0.195-1.492-0.59c-0.361-0.393-0.543-0.973-0.543-1.74
			C123.683,246.906,123.855,246.07,124.201,245.174z M126.445,243.236c-0.451,0.643-0.812,1.447-1.083,2.412
			c-0.27,0.965-0.405,1.893-0.405,2.779c0,0.859,0.282,1.289,0.848,1.289c0.507,0,0.984-0.32,1.434-0.963
			c0.448-0.641,0.809-1.443,1.078-2.406c0.271-0.963,0.406-1.891,0.406-2.785c0-0.443-0.069-0.77-0.207-0.977
			s-0.349-0.312-0.633-0.312C127.376,242.273,126.896,242.596,126.445,243.236z"/>
		<path fill="#FFFFFF" d="M143.768,240.818h0.536l-0.992,3.498h3.439l-0.131,0.449h-3.438l-0.999,3.482h-0.529l0.992-3.482h-3.453
			l0.13-0.449h3.454L143.768,240.818z"/>
		<path fill="#FFFFFF" d="M157.301,242.896c0-0.25-0.106-0.377-0.318-0.377c-0.228,0-0.43,0.121-0.608,0.359
			s-0.367,0.623-0.564,1.154l-0.21,0.551h-0.275l0.384-1.078c0.202-0.566,0.468-0.961,0.796-1.188s0.676-0.342,1.043-0.342
			c0.656,0,0.984,0.311,0.984,0.928c0,0.289-0.082,0.67-0.246,1.145l-1.585,4.496c-0.078,0.213-0.116,0.393-0.116,0.543
			c0,0.25,0.118,0.377,0.354,0.377c0.203,0,0.394-0.113,0.572-0.338s0.374-0.617,0.587-1.176l0.202-0.551h0.282l-0.384,1.086
			c-0.192,0.535-0.451,0.924-0.774,1.166c-0.323,0.24-0.674,0.361-1.05,0.361c-0.69,0-1.035-0.301-1.035-0.904
			c0-0.305,0.087-0.695,0.261-1.174l1.593-4.496C157.265,243.223,157.301,243.041,157.301,242.896z M157.786,239.121
			c0.105-0.176,0.245-0.316,0.416-0.424c0.171-0.105,0.349-0.158,0.532-0.158c0.222,0,0.403,0.072,0.543,0.221
			c0.14,0.146,0.21,0.332,0.21,0.553c0,0.193-0.052,0.375-0.155,0.547c-0.104,0.172-0.243,0.311-0.417,0.416
			c-0.174,0.107-0.354,0.16-0.543,0.16c-0.217,0-0.396-0.072-0.535-0.217c-0.141-0.146-0.21-0.326-0.21-0.543
			C157.627,239.482,157.68,239.297,157.786,239.121z"/>
		<path fill="#FFFFFF" d="M162.756,249.066c0,0.266,0.115,0.398,0.348,0.398c0.197,0,0.384-0.115,0.558-0.346
			c0.173-0.229,0.356-0.619,0.55-1.168l0.195-0.551h0.282l-0.369,1.086c-0.357,1.02-0.951,1.527-1.781,1.527
			c-0.681,0-1.021-0.32-1.021-0.963c0-0.285,0.067-0.656,0.203-1.115l2.418-8.021c0.048-0.178,0.072-0.316,0.072-0.412
			c0-0.199-0.077-0.342-0.231-0.432c-0.155-0.09-0.413-0.135-0.775-0.135l0.102-0.311c0.526-0.004,0.998-0.059,1.416-0.158
			c0.417-0.102,0.826-0.252,1.227-0.449l-3.099,10.527C162.787,248.762,162.756,248.936,162.756,249.066z"/>
		<path fill="#FFFFFF" d="M168.878,249.066c0,0.266,0.115,0.398,0.348,0.398c0.197,0,0.384-0.115,0.558-0.346
			c0.173-0.229,0.356-0.619,0.55-1.168l0.195-0.551h0.282l-0.369,1.086c-0.357,1.02-0.951,1.527-1.781,1.527
			c-0.681,0-1.021-0.32-1.021-0.963c0-0.285,0.067-0.656,0.203-1.115l2.418-8.021c0.048-0.178,0.072-0.316,0.072-0.412
			c0-0.199-0.077-0.342-0.231-0.432c-0.155-0.09-0.413-0.135-0.775-0.135l0.102-0.311c0.526-0.004,0.998-0.059,1.416-0.158
			c0.417-0.102,0.826-0.252,1.227-0.449l-3.099,10.527C168.909,248.762,168.878,248.936,168.878,249.066z"/>
		<path fill="#FFFFFF" d="M181.263,247.4l-0.369,1.086c-0.357,1.02-0.956,1.527-1.796,1.527c-0.164,0-0.314-0.035-0.452-0.104
			c-0.138-0.07-0.24-0.172-0.308-0.301c-0.059-0.121-0.087-0.273-0.087-0.457c0-0.26,0.069-0.666,0.21-1.217l0.471-1.859
			c-0.396,0.955-0.778,1.721-1.148,2.299c-0.369,0.576-0.74,0.994-1.114,1.252s-0.776,0.387-1.206,0.387
			c-0.835,0-1.252-0.381-1.252-1.143c0-0.311,0.072-0.676,0.217-1.102l1.434-4.33c0.077-0.24,0.116-0.426,0.116-0.557
			c0-0.242-0.116-0.363-0.348-0.363c-0.203,0-0.396,0.113-0.579,0.338c-0.184,0.225-0.372,0.617-0.565,1.176l-0.195,0.551h-0.282
			l0.377-1.078c0.347-1.02,0.943-1.529,1.788-1.529c0.695,0,1.042,0.307,1.042,0.92c0,0.271-0.079,0.654-0.238,1.152l-1.412,4.242
			c-0.097,0.289-0.145,0.535-0.145,0.738c0,0.338,0.156,0.508,0.471,0.508c0.376,0,0.795-0.275,1.256-0.826s0.915-1.318,1.361-2.303
			s0.839-2.1,1.177-3.346l0.225-0.883c0.564-0.014,1.016-0.082,1.354-0.203l-1.839,6.568c-0.072,0.25-0.108,0.443-0.108,0.578
			c0,0.227,0.105,0.342,0.318,0.342c0.217,0,0.416-0.117,0.597-0.352c0.182-0.234,0.366-0.621,0.555-1.162l0.195-0.551H181.263z"/>
		<path fill="#FFFFFF" d="M185.567,249.717c0.449,0,0.811-0.133,1.086-0.4c0.275-0.27,0.413-0.645,0.413-1.127
			c0-0.314-0.06-0.623-0.178-0.926c-0.118-0.305-0.317-0.65-0.598-1.037c-0.236-0.322-0.411-0.57-0.524-0.744
			s-0.215-0.383-0.304-0.623c-0.09-0.242-0.135-0.502-0.135-0.783c0-0.41,0.103-0.773,0.308-1.092s0.484-0.566,0.837-0.742
			s0.738-0.266,1.158-0.266c0.512,0,0.941,0.096,1.289,0.287s0.521,0.525,0.521,1.002c0,0.107-0.024,0.219-0.073,0.338
			c-0.048,0.117-0.124,0.219-0.228,0.303c-0.104,0.086-0.233,0.127-0.388,0.127c-0.169,0-0.31-0.057-0.423-0.174
			c-0.114-0.115-0.171-0.266-0.171-0.449c0-0.318,0.141-0.648,0.42-0.99c-0.197-0.117-0.446-0.174-0.745-0.174
			c-0.377,0-0.686,0.125-0.927,0.375c-0.242,0.252-0.362,0.594-0.362,1.029c0,0.26,0.043,0.484,0.13,0.67s0.213,0.395,0.377,0.629
			s0.292,0.42,0.384,0.555c0.294,0.459,0.514,0.85,0.659,1.172c0.145,0.324,0.217,0.66,0.217,1.008c0,0.447-0.116,0.85-0.348,1.205
			c-0.231,0.354-0.542,0.631-0.931,0.828c-0.389,0.199-0.812,0.297-1.271,0.297c-0.569,0-1.046-0.121-1.43-0.361
			c-0.384-0.242-0.575-0.611-0.575-1.107c0-0.174,0.047-0.328,0.141-0.465c0.094-0.135,0.24-0.201,0.438-0.201
			c0.222,0,0.386,0.088,0.492,0.268c0.105,0.178,0.159,0.4,0.159,0.666c0,0.174-0.034,0.43-0.102,0.768
			C185.07,249.672,185.297,249.717,185.567,249.717z"/>
		<path fill="#FFFFFF" d="M193.412,248.877c0,0.199,0.06,0.346,0.178,0.441c0.118,0.098,0.273,0.146,0.467,0.146
			c0.246,0,0.477-0.107,0.691-0.32c0.215-0.211,0.424-0.6,0.627-1.164l0.21-0.58h0.282l-0.312,0.934
			c-0.208,0.613-0.478,1.047-0.811,1.301c-0.333,0.252-0.741,0.379-1.224,0.379c-0.444,0-0.776-0.107-0.996-0.326
			c-0.22-0.217-0.329-0.518-0.329-0.904c0-0.236,0.046-0.52,0.138-0.848l1.571-5.459h-1.333l0.072-0.297h1.348l0.644-2.252
			c0.546-0.014,0.99-0.084,1.333-0.209l-0.703,2.461h1.963l-0.044,0.297h-1.998l-1.724,6.068
			C193.43,248.66,193.412,248.771,193.412,248.877z"/>
		<path fill="#FFFFFF" d="M202.463,243.613c0.321-0.574,0.647-0.99,0.978-1.248c0.331-0.258,0.691-0.389,1.083-0.389
			c0.27,0,0.483,0.08,0.641,0.236c0.156,0.156,0.235,0.357,0.235,0.604c0,0.193-0.049,0.373-0.146,0.537s-0.224,0.295-0.384,0.391
			c-0.159,0.096-0.33,0.145-0.514,0.145c-0.174,0-0.314-0.047-0.424-0.141c-0.108-0.094-0.162-0.227-0.162-0.395
			c0-0.445,0.222-0.76,0.666-0.949c-0.039-0.039-0.095-0.059-0.167-0.059c-0.353,0-0.729,0.262-1.129,0.783
			c-0.401,0.521-0.804,1.25-1.21,2.186c-0.405,0.938-0.791,2.021-1.158,3.252l-0.312,1.238h-1.288l1.773-6.365
			c0.072-0.246,0.108-0.439,0.108-0.578c0-0.227-0.104-0.342-0.312-0.342c-0.222,0-0.423,0.117-0.604,0.352
			c-0.181,0.234-0.365,0.621-0.554,1.162l-0.195,0.551h-0.282l0.376-1.078c0.348-1.02,0.944-1.529,1.789-1.529
			c0.569,0,0.854,0.287,0.854,0.863c0,0.158-0.018,0.324-0.051,0.498c-0.034,0.174-0.087,0.41-0.159,0.711l-0.479,1.881
			C201.801,244.961,202.143,244.188,202.463,243.613z"/>
		<path fill="#FFFFFF" d="M213.729,247.387l-0.369,1.086c-0.203,0.549-0.457,0.943-0.761,1.184c-0.304,0.238-0.62,0.357-0.948,0.357
			c-0.184,0-0.347-0.035-0.489-0.104c-0.142-0.07-0.252-0.166-0.329-0.287c-0.082-0.145-0.123-0.318-0.123-0.521
			c0-0.145,0.017-0.295,0.051-0.453c0.033-0.156,0.069-0.305,0.108-0.447s0.062-0.236,0.072-0.279l0.269-1.078
			c-0.474,1.109-0.955,1.916-1.445,2.418c-0.489,0.502-1.002,0.752-1.538,0.752c-0.454,0-0.8-0.162-1.039-0.488
			s-0.358-0.762-0.358-1.307c0-0.801,0.214-1.697,0.641-2.686c0.428-0.99,0.98-1.83,1.658-2.52c0.678-0.691,1.372-1.037,2.082-1.037
			c0.26,0,0.477,0.098,0.647,0.291c0.172,0.193,0.271,0.465,0.301,0.818l0.231-0.906c0.551-0.014,1.007-0.082,1.368-0.203
			l-1.854,6.553c-0.072,0.262-0.108,0.445-0.108,0.551c0,0.246,0.111,0.369,0.333,0.369c0.435,0,0.813-0.504,1.137-1.514
			l0.182-0.549H213.729z M211.977,243.549c0-0.396-0.071-0.709-0.213-0.941c-0.143-0.232-0.344-0.348-0.604-0.348
			c-0.42,0-0.868,0.326-1.344,0.98s-0.873,1.465-1.194,2.43s-0.481,1.873-0.481,2.723c0,0.41,0.043,0.703,0.13,0.879
			c0.087,0.178,0.215,0.266,0.384,0.266c0.275,0,0.604-0.211,0.988-0.635c0.384-0.422,0.761-0.986,1.13-1.689
			c0.369-0.705,0.675-1.459,0.916-2.26l0.275-1.078C211.972,243.721,211.977,243.611,211.977,243.549z"/>
		<path fill="#FFFFFF" d="M218.215,248.877c0,0.199,0.06,0.346,0.178,0.441c0.118,0.098,0.273,0.146,0.467,0.146
			c0.246,0,0.477-0.107,0.691-0.32c0.215-0.211,0.424-0.6,0.627-1.164l0.21-0.58h0.282l-0.312,0.934
			c-0.208,0.613-0.478,1.047-0.811,1.301c-0.333,0.252-0.741,0.379-1.224,0.379c-0.444,0-0.776-0.107-0.996-0.326
			c-0.22-0.217-0.329-0.518-0.329-0.904c0-0.236,0.046-0.52,0.138-0.848l1.571-5.459h-1.333l0.072-0.297h1.348l0.644-2.252
			c0.546-0.014,0.99-0.084,1.333-0.209l-0.703,2.461h1.963l-0.044,0.297h-1.998l-1.724,6.068
			C218.232,248.66,218.215,248.771,218.215,248.877z"/>
		<path fill="#FFFFFF" d="M225.923,242.896c0-0.25-0.106-0.377-0.318-0.377c-0.228,0-0.43,0.121-0.608,0.359
			s-0.367,0.623-0.564,1.154l-0.21,0.551h-0.275l0.384-1.078c0.202-0.566,0.468-0.961,0.796-1.188s0.676-0.342,1.043-0.342
			c0.656,0,0.984,0.311,0.984,0.928c0,0.289-0.082,0.67-0.246,1.145l-1.585,4.496c-0.078,0.213-0.116,0.393-0.116,0.543
			c0,0.25,0.118,0.377,0.354,0.377c0.203,0,0.394-0.113,0.572-0.338s0.374-0.617,0.587-1.176l0.202-0.551h0.282l-0.384,1.086
			c-0.192,0.535-0.451,0.924-0.774,1.166c-0.323,0.24-0.674,0.361-1.05,0.361c-0.69,0-1.035-0.301-1.035-0.904
			c0-0.305,0.087-0.695,0.261-1.174l1.593-4.496C225.887,243.223,225.923,243.041,225.923,242.896z M226.408,239.121
			c0.105-0.176,0.245-0.316,0.416-0.424c0.171-0.105,0.349-0.158,0.532-0.158c0.222,0,0.403,0.072,0.543,0.221
			c0.14,0.146,0.21,0.332,0.21,0.553c0,0.193-0.052,0.375-0.155,0.547c-0.104,0.172-0.243,0.311-0.417,0.416
			c-0.174,0.107-0.354,0.16-0.543,0.16c-0.217,0-0.396-0.072-0.535-0.217c-0.141-0.146-0.21-0.326-0.21-0.543
			C226.249,239.482,226.302,239.297,226.408,239.121z"/>
		<path fill="#FFFFFF" d="M230.789,245.174c0.345-0.895,0.843-1.652,1.495-2.27c0.651-0.617,1.409-0.928,2.273-0.928
			c0.632,0,1.128,0.197,1.487,0.588s0.539,0.969,0.539,1.736c0,0.777-0.172,1.613-0.518,2.51c-0.345,0.895-0.842,1.652-1.491,2.273
			c-0.649,0.619-1.406,0.93-2.27,0.93c-0.633,0-1.13-0.195-1.492-0.59c-0.361-0.393-0.543-0.973-0.543-1.74
			C230.271,246.906,230.443,246.07,230.789,245.174z M233.033,243.236c-0.451,0.643-0.812,1.447-1.083,2.412
			c-0.27,0.965-0.405,1.893-0.405,2.779c0,0.859,0.282,1.289,0.848,1.289c0.507,0,0.984-0.32,1.434-0.963
			c0.448-0.641,0.809-1.443,1.078-2.406c0.271-0.963,0.406-1.891,0.406-2.785c0-0.443-0.069-0.77-0.207-0.977
			s-0.349-0.312-0.633-0.312C233.964,242.273,233.484,242.596,233.033,243.236z"/>
		<path fill="#FFFFFF" d="M246.695,248.486c-0.348,1.02-0.946,1.527-1.796,1.527c-0.444,0-0.756-0.145-0.934-0.434
			c-0.077-0.125-0.116-0.287-0.116-0.486c0-0.279,0.084-0.666,0.254-1.158l1.404-4.242c0.102-0.295,0.152-0.539,0.152-0.73
			c0-0.344-0.16-0.516-0.479-0.516c-0.381,0-0.811,0.277-1.288,0.83c-0.479,0.553-0.948,1.311-1.409,2.277
			c-0.461,0.965-0.862,2.037-1.205,3.215l-0.261,1.035h-1.289l1.774-6.365c0.072-0.236,0.108-0.422,0.108-0.557
			c0-0.242-0.108-0.363-0.326-0.363c-0.149,0-0.283,0.049-0.401,0.143s-0.236,0.25-0.354,0.467c-0.119,0.217-0.248,0.52-0.388,0.904
			l-0.195,0.551h-0.282l0.376-1.078c0.348-1.02,0.935-1.529,1.76-1.529c0.584,0,0.876,0.293,0.876,0.877
			c0,0.266-0.067,0.664-0.203,1.195l-0.514,2.027c0.425-1.004,0.834-1.807,1.228-2.404c0.393-0.6,0.79-1.031,1.19-1.297
			s0.833-0.398,1.296-0.398c0.797,0,1.195,0.373,1.195,1.115c0,0.295-0.072,0.67-0.218,1.123l-1.44,4.33
			c-0.077,0.23-0.116,0.418-0.116,0.557c0,0.242,0.118,0.363,0.355,0.363c0.202,0,0.396-0.113,0.579-0.338
			c0.183-0.225,0.371-0.617,0.564-1.176l0.195-0.551h0.275L246.695,248.486z"/>
	</g>
</g>
</svg>
