<?xml version="1.0" encoding="UTF-8"?>
<svg width="200px" height="200px" viewBox="0 0 200 200" version="1.1" xmlns="http://www.w3.org/2000/svg" xmlns:xlink="http://www.w3.org/1999/xlink">
    <!-- Generator: Sketch 41.2 (35397) - http://www.bohemiancoding.com/sketch -->
    <title>Artboard</title>
    <desc>Created with Sketch.</desc>
    <defs></defs>
    <g id="Page-1" stroke="none" stroke-width="1" fill="none" fill-rule="evenodd">
        <g id="Artboard" fill="#000000">
            <g id="Logo">
                <path d="M10,190 L190,190 L190,10 L10,10 L10,190 Z M0,0 L200,0 L200,200 L0,200 L0,0 Z" id="Black-Border"></path>
                <path d="M51.675,138.894 C54.9423497,140.595342 57.4846576,142.982985 59.302,146.057 C61.1193424,149.131015 62.028,152.659313 62.028,156.642 C62.028,160.624687 61.1096759,164.162651 59.273,167.256 C57.4363241,170.349349 54.8456834,172.746658 51.501,174.448 C48.1563166,176.149342 44.3186883,177 39.988,177 L22.878,177 L22.878,136.342 L40.394,136.342 C44.6473546,136.342 48.4076503,137.192658 51.675,138.894 Z M46.136,166.966 C47.7213413,165.999328 48.9586622,164.626676 49.848,162.848 C50.7373378,161.069324 51.182,159.039345 51.182,156.758 C51.182,154.437988 50.7083381,152.388676 49.761,150.61 C48.8136619,148.831324 47.508675,147.449005 45.846,146.463 C44.183325,145.476995 42.2886773,144.984 40.162,144.984 L33.492,144.984 L33.492,168.416 L40.684,168.416 C42.7333436,168.416 44.5506587,167.932671 46.136,166.966 Z M67.306,136.342 L99.38,136.342 L99.38,144.81 L77.92,144.81 L77.92,152.408 L97.292,152.408 L97.292,160.818 L77.92,160.876 L77.92,168.532 L99.96,168.532 L99.96,177 L67.306,177 L67.306,136.342 Z M136.326,177 L133.542,169.808 L115.968,169.808 L113.126,177 L102.222,177 L119.68,136.342 L130.584,136.342 L147.636,177 L136.326,177 Z M119.158,161.688 L130.41,161.688 L124.842,147.188 L119.158,161.688 Z M151.29,136.342 L161.904,136.342 L161.904,167.952 L179.13,167.952 L179.13,177 L151.29,177 L151.29,136.342 Z" id="DEAL"></path>
                <path d="M83.706,90.173 C81.8886576,89.1869951 80.0906756,88.694 78.312,88.694 C76.2626564,88.694 74.3970084,89.2063282 72.715,90.231 C71.0329916,91.2556718 69.7086715,92.666991 68.742,94.465 C67.7753285,96.263009 67.292,98.263989 67.292,100.468 C67.292,102.672011 67.7753285,104.672991 68.742,106.471 C69.7086715,108.269009 71.0329916,109.680328 72.715,110.705 C74.3970084,111.729672 76.2626564,112.242 78.312,112.242 C79.974675,112.242 81.7146576,111.816671 83.532,110.966 C85.3493424,110.115329 86.9733262,108.955341 88.404,107.486 L94.61,114.156 C92.405989,116.476012 89.7863485,118.322326 86.751,119.695 C83.7156515,121.067674 80.7093482,121.754 77.732,121.754 C73.7106466,121.754 70.0760162,120.826009 66.828,118.97 C63.5799838,117.113991 61.0280093,114.581349 59.172,111.372 C57.3159907,108.162651 56.388,104.566687 56.388,100.584 C56.388,96.6399803 57.3353239,93.0826825 59.23,89.912 C61.1246761,86.7413175 63.7249835,84.2473424 67.031,82.43 C70.3370165,80.6126576 74.0393128,79.704 78.138,79.704 C81.1540151,79.704 84.1313186,80.3323271 87.07,81.589 C90.0086814,82.8456729 92.5026564,84.5566558 94.552,86.722 L88.404,94.146 C87.0893268,92.483325 85.5233424,91.1590049 83.706,90.173 Z M123.146,90.173 C121.328658,89.1869951 119.530676,88.694 117.752,88.694 C115.702656,88.694 113.837008,89.2063282 112.155,90.231 C110.472992,91.2556718 109.148671,92.666991 108.182,94.465 C107.215328,96.263009 106.732,98.263989 106.732,100.468 C106.732,102.672011 107.215328,104.672991 108.182,106.471 C109.148671,108.269009 110.472992,109.680328 112.155,110.705 C113.837008,111.729672 115.702656,112.242 117.752,112.242 C119.414675,112.242 121.154658,111.816671 122.972,110.966 C124.789342,110.115329 126.413326,108.955341 127.844,107.486 L134.05,114.156 C131.845989,116.476012 129.226349,118.322326 126.191,119.695 C123.155651,121.067674 120.149348,121.754 117.172,121.754 C113.150647,121.754 109.516016,120.826009 106.268,118.97 C103.019984,117.113991 100.468009,114.581349 98.612,111.372 C96.7559907,108.162651 95.828,104.566687 95.828,100.584 C95.828,96.6399803 96.7753239,93.0826825 98.67,89.912 C100.564676,86.7413175 103.164983,84.2473424 106.471,82.43 C109.777017,80.6126576 113.479313,79.704 117.578,79.704 C120.594015,79.704 123.571319,80.3323271 126.51,81.589 C129.448681,82.8456729 131.942656,84.5566558 133.992,86.722 L127.844,94.146 C126.529327,92.483325 124.963342,91.1590049 123.146,90.173 Z M167.98,121 L165.196,113.808 L147.622,113.808 L144.78,121 L133.876,121 L151.334,80.342 L162.238,80.342 L179.29,121 L167.98,121 Z M150.812,105.688 L162.064,105.688 L156.496,91.188 L150.812,105.688 Z" id="CCA"></path>
                <path d="M47.542,65 L41.626,53.748 L33.738,53.748 L33.738,65 L23.124,65 L23.124,24.342 L41.394,24.342 C46.7686935,24.342 50.9349852,25.5889875 53.893,28.083 C56.8510148,30.5770125 58.33,34.0859774 58.33,38.61 C58.33,41.6646819 57.7113395,44.3036556 56.474,46.527 C55.2366605,48.7503445 53.4386785,50.4806605 51.08,51.718 L59.548,65 L47.542,65 Z M33.738,45.28 L41.452,45.28 C43.6173442,45.28 45.2896608,44.7386721 46.469,43.656 C47.6483392,42.5733279 48.238,41.0073436 48.238,38.958 C48.238,36.9859901 47.6483392,35.4683386 46.469,34.405 C45.2896608,33.3416613 43.6173442,32.81 41.452,32.81 L33.738,32.81 L33.738,45.28 Z M65.116,24.342 L97.19,24.342 L97.19,32.81 L75.73,32.81 L75.73,40.408 L95.102,40.408 L95.102,48.818 L75.73,48.876 L75.73,56.532 L97.77,56.532 L97.77,65 L65.116,65 L65.116,24.342 Z M131.555,25.589 C133.817011,26.4203375 135.56666,27.6093256 136.804,29.156 C138.04134,30.7026744 138.66,32.5199896 138.66,34.608 C138.66,36.7346773 138.031673,38.5906587 136.775,40.176 C135.518327,41.7613413 133.807344,42.8439971 131.642,43.424 C134.23268,43.9266692 136.272326,45.1059907 137.761,46.962 C139.249674,48.8180093 139.994,51.0606535 139.994,53.69 C139.994,55.9713447 139.356006,57.9723247 138.08,59.693 C136.803994,61.4136753 134.986678,62.7283288 132.628,63.637 C130.269322,64.5456712 127.504683,65 124.334,65 L104.266,65 L104.266,24.342 L123.58,24.342 C126.634682,24.342 129.292989,24.7576625 131.555,25.589 Z M126.48,39.451 C127.330671,38.7356631 127.756,37.7400064 127.756,36.464 C127.756,35.2266605 127.330671,34.2696701 126.48,33.593 C125.629329,32.9163299 124.469341,32.5973331 123,32.636 L114.88,32.636 L114.88,40.524 L123,40.524 C124.469341,40.524 125.629329,40.1663369 126.48,39.451 Z M127.408,55.604 C128.490672,54.8306628 129.032,53.748007 129.032,52.356 C129.032,51.0799936 128.490672,50.0650038 127.408,49.311 C126.325328,48.5569962 124.856009,48.1993331 123,48.238 L114.88,48.238 L114.88,56.764 L123,56.764 C124.856009,56.764 126.325328,56.3773372 127.408,55.604 Z M145.794,24.342 L177.868,24.342 L177.868,32.81 L156.408,32.81 L156.408,40.408 L175.78,40.408 L175.78,48.818 L156.408,48.876 L156.408,56.532 L178.448,56.532 L178.448,65 L145.794,65 L145.794,24.342 Z" id="REBE"></path>
            </g>
        </g>
    </g>
</svg>